<svg id="Capa_1" data-name="Capa 1" xmlns="http://www.w3.org/2000/svg" xmlns:xlink="http://www.w3.org/1999/xlink" viewBox="0 0 1080 1080"><defs><style>.cls-1{fill:#1183ea;}.cls-2{fill:url(#Degradado_sin_nombre_7);}</style><linearGradient id="Degradado_sin_nombre_7" x1="264.87" y1="412.15" x2="814.02" y2="412.15" gradientUnits="userSpaceOnUse"><stop offset="0" stop-color="#2b0acc"/><stop offset="0.09" stop-color="#281ed1"/><stop offset="0.29" stop-color="#2148db"/><stop offset="0.49" stop-color="#1b6ae3"/><stop offset="0.68" stop-color="#1782e8"/><stop offset="0.85" stop-color="#1590ec"/><stop offset="1" stop-color="#1495ed"/></linearGradient></defs><path class="cls-1" d="M161.34,883.52C176.77,893.91,196,899.4,216.8,899.4c33.71,0,54.64-16.74,54.64-43.68v-.4c0-25.49-20.24-35.11-50.63-41.72-18.84-4.27-25.53-7.22-25.53-15.3v-.39c0-5,4.13-10.76,15.74-10.76,10.26,0,21.34,3.13,32.06,9.05a8.62,8.62,0,0,0,11.22-2.53l7.65-10.8a8.61,8.61,0,0,0-2.56-12.34c-13.36-8-28.86-11.91-47.37-11.91-31.25,0-52.25,17.23-52.25,42.87v.4C159.77,830,183,837.62,211,844c19.09,4.42,24.91,7.94,24.91,15.09v.4c0,3.41-1.73,11.35-17.73,11.35a71.35,71.35,0,0,1-38.83-11.73,8.62,8.62,0,0,0-11.23,1.71L159.68,871a8.69,8.69,0,0,0-1.94,6.79A8.28,8.28,0,0,0,161.34,883.52Z"/><path class="cls-1" d="M350.31,761h0a26.71,26.71,0,0,0-26.71,26.71V888.4a8.61,8.61,0,0,0,8.61,8.61h18.1a8.62,8.62,0,0,0,8.61-8.61V769.61A8.61,8.61,0,0,0,350.31,761Z"/><path class="cls-1" d="M532.56,772.37c-13.82-9.65-29.11-14.15-48.1-14.15-41.84,0-73.38,30.43-73.38,70.79v.4c0,40.78,31.19,70.39,74.17,70.39,20.43,0,38.44-6.07,55-18.54a6.71,6.71,0,0,0,2.65-5.36v-43a6,6,0,0,0-6-6h0a26,26,0,0,0-26,26v10.57l-.8.53c-6.24,4.09-13.87,6.08-23.31,6.08-23,0-39.66-17-39.66-40.46v-.4c0-22.47,16.46-40.06,37.47-40.06a48.68,48.68,0,0,1,28.51,8.77,6.77,6.77,0,0,0,9-1.24l11.89-14.29a6.71,6.71,0,0,0,1.33-6A7.14,7.14,0,0,0,532.56,772.37Z"/><path class="cls-1" d="M739.86,772.21a11.21,11.21,0,0,0-11.2-11.2H708a11.13,11.13,0,0,0-9.53,5.32l-31,50.32-31-50.32a11.13,11.13,0,0,0-9.53-5.32H606.29a11.21,11.21,0,0,0-11.19,11.2V888.4a8.61,8.61,0,0,0,8.6,8.61h17.11a8.61,8.61,0,0,0,8.6-8.61V813.1l30.31,46A8.56,8.56,0,0,0,667,863h0a8.55,8.55,0,0,0,7.23-3.88L705,812.73V888.4a8.61,8.61,0,0,0,8.6,8.61h17.71a8.61,8.61,0,0,0,8.6-8.61Z"/><path class="cls-1" d="M828.38,872.08h56.23l8,19.57a8.57,8.57,0,0,0,8,5.36h18.83a8.6,8.6,0,0,0,7.92-12l-50-118.2A11.19,11.19,0,0,0,867,760H847a11.19,11.19,0,0,0-10.32,6.84l-50,118.2a8.6,8.6,0,0,0,7.92,12h18a8.57,8.57,0,0,0,8-5.41Zm28.68-79.78,20,53.24H836.31Z"/><path class="cls-1" d="M941,743v4h-6.7v21.21h-5V746.94h-6.71v-4Z"/><path class="cls-1" d="M972.12,743v25.18h-5V751.77l-6.74,16.38H956.5l-6.78-16.38v16.38h-5.05V743h5.74l8,18.72,8-18.72Z"/><path class="cls-2" d="M565,474.8l78.27-39.74,63.19,24.39V385.84l22.51-1.53V504.09L643,469.57,534.69,529.44V400.22L565,397.29ZM814,362.1V599.37a18.82,18.82,0,0,1-16.6,18.68l-20.58,2.44a31.38,31.38,0,0,1-15.51-2.08L642.39,575.82,513.65,653.7a28.34,28.34,0,0,1-10.91,3.85l-34.46,4.68a64.68,64.68,0,0,1-31-3.35L286.18,603.64a32.44,32.44,0,0,1-21.31-30.47V347.59A44.64,44.64,0,0,1,276,318.11l32.86-37.37v-59c0-4.64,2.88-8.51,6.72-9.5h.05a7.82,7.82,0,0,1,1.88-.25h0l25.64-4.18a42.71,42.71,0,0,1,5.54-.36l39.94.87,43.18-34.38a37.21,37.21,0,0,1,22.28-8.1l173-4.31a41.51,41.51,0,0,1,32,13.82L805,338.49A35.4,35.4,0,0,1,814,362.1Zm-45.2,12L639.94,239.5,485.48,389.66v211l156.91-88.34L768.82,560Z"/></svg>